<svg width="100%" height="100%" viewBox="0 0 108 46" version="1.1" xmlns="http://www.w3.org/2000/svg" xmlns:xlink="http://www.w3.org/1999/xlink" xml:space="preserve" xmlns:serif="http://www.serif.com/" style="fill-rule:evenodd;clip-rule:evenodd;stroke-linecap:round;stroke-linejoin:round;stroke-miterlimit:1.5;">
    <path d="M13.489,2.074C13.489,2.074 15.03,2.683 15.239,15.078C15.362,22.436 15.009,33.788 16.233,38.314C17.557,43.21 23.788,45.763 29.705,38.843" style="fill:none;stroke:black;stroke-width:3.99px;"/>
    <path d="M2.122,25.764C2.661,25.372 10.739,25.708 28.884,29.63" style="fill:none;stroke:black;stroke-width:4px;"/>
    <path d="M35.999,28.729C35.999,28.729 36.042,32.55 36.949,35.427C37.856,38.305 38.71,41.675 40.091,42.554" style="fill:none;stroke:black;stroke-width:4px;"/>
    <path d="M31.497,18.7C31.497,18.7 34.809,22.058 35.016,22.592" style="fill:none;stroke:black;stroke-width:4px;"/>
    <path d="M46.23,32.359C45.821,32.448 46.396,40.383 51.278,40.822C56.161,41.261 60.085,33.146 62.388,35.206C64.079,36.718 64.678,39.04 71.326,39.562C76.869,39.998 91.413,38.458 96.855,39.123C99.738,39.476 105.355,42.018 105.355,42.018" style="fill:none;stroke:black;stroke-width:4px;"/>
</svg>
